<svg width="102" height="30" viewBox="0 0 102 30" fill="none" xmlns="http://www.w3.org/2000/svg">
<path d="M101.294 26.0325C101.294 27.6006 99.9969 28.8709 98.393 28.8709H3.47029C1.86717 28.8709 0.565918 27.6006 0.565918 26.0325V3.39731C0.565918 1.8299 1.86717 0.555222 3.47029 0.555222H98.3923C99.9969 0.555222 101.293 1.8299 101.293 3.39731L101.294 26.0325Z" fill="black"/>
<path d="M98.0869 0.589517C99.8336 0.589517 101.255 1.9753 101.255 3.67834V25.7479C101.255 27.4509 99.8336 28.8367 98.0869 28.8367H3.77257C2.02587 28.8367 0.604555 27.4509 0.604555 25.7479V3.67834C0.604555 1.9753 2.02587 0.589517 3.77257 0.589517H98.0869ZM98.0869 7.81537e-05H3.77257C1.6986 7.81537e-05 0 1.65621 0 3.67834V25.7479C0 27.77 1.6986 29.4261 3.77257 29.4261H98.0869C100.161 29.4261 101.859 27.77 101.859 25.7479V3.67834C101.859 1.65621 100.161 7.81537e-05 98.0869 7.81537e-05Z" fill="#A6A6A6"/>
<path d="M22.7322 14.5541C22.7103 12.1831 24.7234 11.0296 24.8154 10.9759C23.6753 9.35524 21.9083 9.13381 21.2873 9.11616C19.8032 8.96388 18.3636 9.98202 17.6075 9.98202C16.8364 9.98202 15.6722 9.13087 14.4174 9.15588C12.8028 9.18016 11.2922 10.0916 10.4638 11.507C8.75406 14.393 10.0292 18.634 11.6672 20.9668C12.4866 22.1092 13.4441 23.3849 14.6974 23.34C15.9235 23.2907 16.3814 22.5778 17.861 22.5778C19.3271 22.5778 19.7571 23.34 21.0353 23.3113C22.3512 23.2907 23.1796 22.1637 23.9703 21.0109C24.9173 19.7014 25.2975 18.4118 25.3126 18.3456C25.2817 18.3353 22.7571 17.3959 22.7322 14.5541Z" fill="white"/>
<path d="M20.3177 7.58159C20.9772 6.77752 21.4284 5.68361 21.3031 4.57351C20.3487 4.61471 19.155 5.2172 18.4677 6.00362C17.8595 6.6966 17.3163 7.83245 17.4566 8.90061C18.5288 8.97859 19.6296 8.37315 20.3177 7.58159Z" fill="white"/>
<path d="M40.476 23.1759H38.7625L37.8239 20.3002H34.5614L33.6673 23.1759H31.999L35.2314 13.3858H37.2278L40.476 23.1759ZM37.5409 19.0937L36.6921 16.5373C36.6023 16.2762 36.4341 15.6612 36.1858 14.6931H36.1556C36.0568 15.1094 35.8976 15.7244 35.6788 16.5373L34.8451 19.0937H37.5409Z" fill="white"/>
<path d="M48.7884 19.5594C48.7884 20.76 48.4556 21.709 47.7902 22.4057C47.1941 23.0258 46.4539 23.3355 45.5704 23.3355C44.6167 23.3355 43.9316 23.0015 43.5143 22.3336H43.4841V26.0523H41.8755V18.4405C41.8755 17.6857 41.8552 16.9111 41.8159 16.1166H43.2306L43.3204 17.2355H43.3506C43.8871 16.3924 44.7012 15.9716 45.7937 15.9716C46.6478 15.9716 47.3608 16.3005 47.9313 16.9589C48.5032 17.618 48.7884 18.4846 48.7884 19.5594ZM47.1496 19.6168C47.1496 18.9297 46.9911 18.3633 46.6727 17.9174C46.3249 17.4525 45.8579 17.2201 45.2723 17.2201C44.8755 17.2201 44.5148 17.3495 44.1926 17.6048C43.8697 17.8623 43.6584 18.1985 43.5596 18.6148C43.5098 18.8091 43.4849 18.968 43.4849 19.093V20.2701C43.4849 20.7835 43.6464 21.2168 43.9693 21.5707C44.2922 21.9245 44.7117 22.1011 45.2278 22.1011C45.8337 22.1011 46.3053 21.873 46.6425 21.4184C46.9806 20.963 47.1496 20.3628 47.1496 19.6168Z" fill="white"/>
<path d="M57.1162 19.5594C57.1162 20.76 56.7835 21.709 56.1173 22.4057C55.522 23.0258 54.7818 23.3355 53.8982 23.3355C52.9445 23.3355 52.2594 23.0015 51.8429 22.3336H51.8128V26.0523H50.2041V18.4405C50.2041 17.6857 50.1838 16.9111 50.1445 16.1166H51.5592L51.649 17.2355H51.6792C52.2149 16.3924 53.029 15.9716 54.1223 15.9716C54.9757 15.9716 55.6887 16.3005 56.2606 16.9589C56.8303 17.618 57.1162 18.4846 57.1162 19.5594ZM55.4774 19.6168C55.4774 18.9297 55.3182 18.3633 54.9998 17.9174C54.652 17.4525 54.1865 17.2201 53.6002 17.2201C53.2026 17.2201 52.8427 17.3495 52.5197 17.6048C52.1968 17.8623 51.9863 18.1985 51.8875 18.6148C51.8384 18.8091 51.8128 18.968 51.8128 19.093V20.2701C51.8128 20.7835 51.9742 21.2168 52.2957 21.5707C52.6186 21.9238 53.0381 22.1011 53.5557 22.1011C54.1616 22.1011 54.6331 21.873 54.9704 21.4184C55.3084 20.963 55.4774 20.3628 55.4774 19.6168Z" fill="white"/>
<path d="M66.4265 20.4306C66.4265 21.2633 66.13 21.9409 65.5347 22.4639C64.8805 23.0355 63.9698 23.3209 62.7996 23.3209C61.7191 23.3209 60.8529 23.1179 60.1973 22.7111L60.57 21.4038C61.2762 21.8202 62.0511 22.0291 62.8954 22.0291C63.5013 22.0291 63.9729 21.8952 64.3116 21.6289C64.6489 21.3626 64.8172 21.0051 64.8172 20.5593C64.8172 20.162 64.6783 19.8273 64.3999 19.5559C64.123 19.2844 63.6605 19.0321 63.0146 18.7989C61.2566 18.1596 60.3784 17.2231 60.3784 15.9916C60.3784 15.1868 60.6862 14.527 61.3026 14.0135C61.9168 13.4993 62.7362 13.2425 63.7608 13.2425C64.6746 13.2425 65.4336 13.3977 66.0395 13.7074L65.6373 14.986C65.0714 14.6859 64.4316 14.5358 63.7156 14.5358C63.1497 14.5358 62.7075 14.6719 62.3906 14.9426C62.1228 15.1846 61.9885 15.4796 61.9885 15.8291C61.9885 16.216 62.1416 16.536 62.4495 16.7876C62.7173 17.0201 63.204 17.2717 63.9102 17.5431C64.7742 17.8823 65.4087 18.2788 65.8169 18.7334C66.2236 19.1866 66.4265 19.7538 66.4265 20.4306Z" fill="white"/>
<path d="M71.7453 17.2938H69.9722V20.7212C69.9722 21.5929 70.2846 22.0284 70.9108 22.0284C71.1983 22.0284 71.4367 22.0042 71.6254 21.9556L71.6699 23.1466C71.353 23.2621 70.9357 23.3202 70.4189 23.3202C69.7836 23.3202 69.2871 23.1312 68.9287 22.7538C68.5718 22.3757 68.3923 21.7415 68.3923 20.8507V17.2923H67.3359V16.1153H68.3923V14.8227L69.9722 14.3578V16.1153H71.7453V17.2938Z" fill="white"/>
<path d="M79.7455 19.5883C79.7455 20.6734 79.4271 21.5642 78.7918 22.2609C78.1255 22.9782 77.2413 23.3357 76.1389 23.3357C75.0766 23.3357 74.2307 22.9921 73.6 22.305C72.9692 21.6179 72.6538 20.7506 72.6538 19.7053C72.6538 18.6113 72.9782 17.7153 73.6294 17.0187C74.279 16.3213 75.1558 15.9726 76.2581 15.9726C77.3205 15.9726 78.1753 16.3161 78.8204 17.0039C79.4376 17.6712 79.7455 18.5326 79.7455 19.5883ZM78.0765 19.639C78.0765 18.988 77.9339 18.4296 77.6449 17.964C77.3077 17.4005 76.8255 17.1194 76.2008 17.1194C75.5542 17.1194 75.063 17.4012 74.7257 17.964C74.4367 18.4304 74.2941 18.9976 74.2941 19.6685C74.2941 20.3195 74.4367 20.8779 74.7257 21.3428C75.0735 21.9063 75.5594 22.1873 76.1864 22.1873C76.8006 22.1873 77.2828 21.9004 77.6306 21.3281C77.9271 20.8536 78.0765 20.2894 78.0765 19.639Z" fill="white"/>
<path d="M84.9743 17.4959C84.8151 17.4672 84.6453 17.4525 84.4672 17.4525C83.9014 17.4525 83.4637 17.6607 83.1559 18.0778C82.888 18.4456 82.7537 18.9106 82.7537 19.4719V23.1759H81.1459L81.1609 18.3397C81.1609 17.5261 81.1406 16.7853 81.1006 16.1173H82.5017L82.5606 17.468H82.6051C82.7749 17.0038 83.0427 16.6301 83.4094 16.3498C83.7678 16.0974 84.1549 15.9716 84.5721 15.9716C84.7208 15.9716 84.8551 15.9819 84.9743 16.0003V17.4959Z" fill="white"/>
<path d="M92.1684 19.3124C92.1684 19.5934 92.1495 19.8303 92.1095 20.0238H87.2837C87.3025 20.7212 87.5357 21.2545 87.9838 21.6224C88.3905 21.9512 88.9164 22.116 89.5623 22.116C90.2768 22.116 90.9287 22.0049 91.515 21.782L91.767 22.8708C91.0819 23.1621 90.273 23.307 89.3397 23.307C88.217 23.307 87.3357 22.9848 86.6944 22.3411C86.0546 21.6974 85.7339 20.833 85.7339 19.7487C85.7339 18.6842 86.0319 17.7977 86.6287 17.0907C87.2535 16.336 88.0978 15.9586 89.1601 15.9586C90.2036 15.9586 90.9936 16.336 91.5301 17.0907C91.9548 17.6903 92.1684 18.4318 92.1684 19.3124ZM90.6345 18.9056C90.645 18.4407 90.5401 18.039 90.3221 17.6999C90.0437 17.2636 89.6159 17.0459 89.0402 17.0459C88.5143 17.0459 88.0865 17.2585 87.7598 17.6852C87.4919 18.0243 87.3327 18.4311 87.2837 18.9049H90.6345V18.9056Z" fill="white"/>
<path d="M37.0089 7.36316C37.0089 8.22902 36.7425 8.88081 36.2106 9.31852C35.7179 9.72239 35.0177 9.9247 34.1108 9.9247C33.6611 9.9247 33.2763 9.90557 32.9541 9.86732V5.13634C33.3744 5.07013 33.8271 5.03629 34.316 5.03629C35.1799 5.03629 35.8311 5.21947 36.2702 5.58582C36.7621 6 37.0089 6.5922 37.0089 7.36316ZM36.1751 7.38449C36.1751 6.82319 36.0227 6.39283 35.7179 6.09269C35.4131 5.79328 34.9679 5.64321 34.3816 5.64321C34.1327 5.64321 33.9206 5.65939 33.7448 5.69323V9.28983C33.8422 9.30454 34.0202 9.31116 34.279 9.31116C34.8842 9.31116 35.3512 9.14711 35.6802 8.81901C36.0091 8.49091 36.1751 8.01274 36.1751 7.38449Z" fill="white"/>
<path d="M41.4294 8.11941C41.4294 8.65276 41.2732 9.08974 40.9608 9.43255C40.6334 9.78493 40.1995 9.96075 39.6578 9.96075C39.1357 9.96075 38.7199 9.79229 38.4098 9.45389C38.1005 9.11622 37.9458 8.69028 37.9458 8.17679C37.9458 7.63977 38.105 7.19911 38.4249 6.85704C38.7448 6.51496 39.1749 6.34355 39.7166 6.34355C40.2388 6.34355 40.6583 6.51202 40.9759 6.84968C41.2777 7.17778 41.4294 7.60152 41.4294 8.11941ZM40.6092 8.14443C40.6092 7.82442 40.5383 7.55002 40.3972 7.32123C40.2312 7.04463 39.9951 6.90632 39.688 6.90632C39.3703 6.90632 39.1289 7.04463 38.9629 7.32123C38.821 7.55002 38.7509 7.82883 38.7509 8.1584C38.7509 8.47841 38.8218 8.75281 38.9629 8.9816C39.1342 9.2582 39.3726 9.3965 39.6804 9.3965C39.9822 9.3965 40.2192 9.256 40.3897 8.97424C40.536 8.74104 40.6092 8.46443 40.6092 8.14443Z" fill="white"/>
<path d="M47.3569 6.41414L46.244 9.882H45.5197L45.0587 8.37612C44.9417 8.0002 44.8467 7.62649 44.7727 7.25572H44.7584C44.6897 7.63679 44.5947 8.00977 44.4724 8.37612L43.9828 9.882H43.2501L42.2036 6.41414H43.0162L43.4184 8.06273C43.5157 8.45263 43.5957 8.82413 43.6598 9.17578H43.6742C43.733 8.88593 43.8303 8.51663 43.9677 8.07009L44.4724 6.41487H45.1168L45.6004 8.03478C45.7174 8.42982 45.8125 8.81016 45.8856 9.17651H45.9075C45.9611 8.81972 46.0418 8.43939 46.149 8.03478L46.5805 6.41487H47.3569V6.41414Z" fill="white"/>
<path d="M51.4565 9.88213H50.6658V7.89587C50.6658 7.28381 50.4274 6.97778 49.949 6.97778C49.7143 6.97778 49.525 7.06164 49.3778 7.23011C49.2322 7.39857 49.1583 7.5972 49.1583 7.82451V9.8814H48.3675V7.40519C48.3675 7.10063 48.3577 6.77032 48.3389 6.4128H49.0338L49.0707 6.95497H49.0926C49.1847 6.78651 49.322 6.64747 49.5023 6.53639C49.7166 6.40691 49.9565 6.34144 50.2191 6.34144C50.5511 6.34144 50.8272 6.4459 51.0468 6.65556C51.3199 6.9123 51.4565 7.29558 51.4565 7.80465V9.88213Z" fill="white"/>
<path d="M53.6371 9.88209H52.8472V4.82301H53.6371V9.88209Z" fill="white"/>
<path d="M58.2922 8.11941C58.2922 8.65276 58.136 9.08974 57.8236 9.43255C57.4962 9.78493 57.0616 9.96075 56.5206 9.96075C55.9977 9.96075 55.582 9.79229 55.2726 9.45389C54.9633 9.11622 54.8086 8.69028 54.8086 8.17679C54.8086 7.63977 54.9678 7.19911 55.2877 6.85704C55.6076 6.51496 56.0377 6.34355 56.5787 6.34355C57.1016 6.34355 57.5203 6.51202 57.8387 6.84968C58.1405 7.17778 58.2922 7.60152 58.2922 8.11941ZM57.4713 8.14443C57.4713 7.82442 57.4004 7.55002 57.2593 7.32123C57.094 7.04463 56.8571 6.90632 56.5508 6.90632C56.2324 6.90632 55.9909 7.04463 55.8257 7.32123C55.6838 7.55002 55.6137 7.82883 55.6137 8.1584C55.6137 8.47841 55.6846 8.75281 55.8257 8.9816C55.997 9.2582 56.2354 9.3965 56.5432 9.3965C56.845 9.3965 57.0812 9.256 57.2517 8.97424C57.3988 8.74104 57.4713 8.46443 57.4713 8.14443Z" fill="white"/>
<path d="M62.1192 9.88203H61.4092L61.3503 9.48258H61.3285C61.0855 9.80111 60.7392 9.96075 60.2895 9.96075C59.9537 9.96075 59.6821 9.85555 59.4776 9.64663C59.292 9.45683 59.1992 9.22068 59.1992 8.9404C59.1992 8.51667 59.3803 8.19371 59.7447 7.97008C60.1084 7.74644 60.62 7.63683 61.2787 7.64198V7.57724C61.2787 7.1204 61.0327 6.89235 60.54 6.89235C60.1891 6.89235 59.8798 6.97842 59.6127 7.14909L59.452 6.64296C59.7825 6.4436 60.1907 6.34355 60.672 6.34355C61.6016 6.34355 62.0679 6.82172 62.0679 7.77807V9.05516C62.0679 9.40165 62.0852 9.67752 62.1192 9.88203ZM61.2983 8.69028V8.15546C60.4261 8.14075 59.99 8.37395 59.99 8.85433C59.99 9.0353 60.0397 9.17066 60.1416 9.26114C60.2435 9.35163 60.3732 9.3965 60.5279 9.3965C60.7015 9.3965 60.8637 9.3428 61.0116 9.23613C61.1602 9.12873 61.2515 8.99263 61.2854 8.82564C61.2937 8.78812 61.2983 8.74251 61.2983 8.69028Z" fill="white"/>
<path d="M66.6126 9.88209H65.9109L65.8739 9.3252H65.852C65.628 9.74894 65.2462 9.9608 64.7097 9.9608C64.2811 9.9608 63.9243 9.79675 63.6413 9.46865C63.3584 9.14055 63.2173 8.71461 63.2173 8.19156C63.2173 7.63026 63.3705 7.17563 63.6783 6.8284C63.9763 6.50471 64.3415 6.34287 64.7761 6.34287C65.2537 6.34287 65.588 6.49956 65.7781 6.81369H65.7932V4.82301H66.5847V8.94781C66.5847 9.28548 66.5937 9.59666 66.6126 9.88209ZM65.7932 8.41961V7.84139C65.7932 7.74134 65.7856 7.66042 65.7713 7.59863C65.7268 7.41324 65.631 7.25728 65.4854 7.13149C65.3382 7.00569 65.1609 6.94243 64.9564 6.94243C64.6614 6.94243 64.4305 7.05645 64.2608 7.28524C64.0925 7.51403 64.0073 7.80608 64.0073 8.16287C64.0073 8.50568 64.088 8.78376 64.2502 8.99784C64.4215 9.22589 64.6524 9.33991 64.9413 9.33991C65.2009 9.33991 65.4084 9.24501 65.5661 9.05448C65.7185 8.87866 65.7932 8.66679 65.7932 8.41961Z" fill="white"/>
<path d="M73.3752 8.11941C73.3752 8.65276 73.219 9.08974 72.9066 9.43255C72.5792 9.78493 72.1461 9.96075 71.6036 9.96075C71.0822 9.96075 70.6665 9.79229 70.3556 9.45389C70.0463 9.11622 69.8916 8.69028 69.8916 8.17679C69.8916 7.63977 70.0508 7.19911 70.3707 6.85704C70.6906 6.51496 71.1207 6.34355 71.6632 6.34355C72.1846 6.34355 72.6048 6.51202 72.9217 6.84968C73.2235 7.17778 73.3752 7.60152 73.3752 8.11941ZM72.5558 8.14443C72.5558 7.82442 72.4849 7.55002 72.3438 7.32123C72.177 7.04463 71.9416 6.90632 71.6338 6.90632C71.3169 6.90632 71.0754 7.04463 70.9087 7.32123C70.7668 7.55002 70.6967 7.82883 70.6967 8.1584C70.6967 8.47841 70.7676 8.75281 70.9087 8.9816C71.08 9.2582 71.3184 9.3965 71.6262 9.3965C71.928 9.3965 72.1657 9.256 72.3362 8.97424C72.4819 8.74104 72.5558 8.46443 72.5558 8.14443Z" fill="white"/>
<path d="M77.6267 9.88213H76.8367V7.89587C76.8367 7.28381 76.5983 6.97778 76.1191 6.97778C75.8845 6.97778 75.6951 7.06164 75.5487 7.23011C75.4024 7.39857 75.3292 7.5972 75.3292 7.82451V9.8814H74.5377V7.40519C74.5377 7.10063 74.5286 6.77032 74.5098 6.4128H75.2039L75.2409 6.95497H75.2628C75.3556 6.78651 75.4929 6.64747 75.6725 6.53639C75.8875 6.40691 76.1267 6.34144 76.39 6.34144C76.7212 6.34144 76.9974 6.4459 77.217 6.65556C77.4908 6.9123 77.6267 7.29558 77.6267 7.80465V9.88213Z" fill="white"/>
<path d="M82.9484 6.99179H82.0777V8.67643C82.0777 9.10458 82.2324 9.31866 82.5387 9.31866C82.6806 9.31866 82.7983 9.30689 82.8911 9.28261L82.9115 9.86745C82.7553 9.92484 82.55 9.95353 82.2973 9.95353C81.9849 9.95353 81.742 9.86083 81.5662 9.67545C81.3896 9.49007 81.3021 9.17815 81.3021 8.74044V6.99179H80.7822V6.41431H81.3021V5.7787L82.077 5.55065V6.41357H82.9477V6.99179H82.9484Z" fill="white"/>
<path d="M87.1344 9.88209H86.3429V7.91054C86.3429 7.28892 86.1045 6.97774 85.6269 6.97774C85.2602 6.97774 85.0097 7.15797 84.8724 7.51844C84.849 7.59421 84.8354 7.6869 84.8354 7.79578V9.88135H84.0454V4.82301H84.8354V6.913H84.8505C85.0995 6.53267 85.4564 6.34287 85.9189 6.34287C86.2463 6.34287 86.5172 6.44733 86.7322 6.65699C87.0001 6.91815 87.1344 7.30657 87.1344 7.82006V9.88209Z" fill="white"/>
<path d="M91.4522 7.98414C91.4522 8.12244 91.4416 8.23867 91.4228 8.33357H89.0513C89.0619 8.67638 89.1751 8.93754 89.3947 9.11851C89.5954 9.28035 89.8541 9.36128 90.171 9.36128C90.5219 9.36128 90.8418 9.30684 91.13 9.19723L91.2538 9.73278C90.9165 9.8755 90.5196 9.94685 90.0601 9.94685C89.5093 9.94685 89.0755 9.78869 88.7616 9.47236C88.4462 9.15603 88.29 8.73156 88.29 8.19895C88.29 7.6759 88.4357 7.24039 88.7292 6.89317C89.0355 6.5224 89.4497 6.33701 89.9726 6.33701C90.4842 6.33701 90.8727 6.5224 91.1353 6.89317C91.3473 7.18743 91.4522 7.55157 91.4522 7.98414ZM90.6977 7.78478C90.7037 7.55599 90.6517 7.35883 90.5445 7.19258C90.4072 6.9785 90.1982 6.8711 89.9153 6.8711C89.6572 6.8711 89.4467 6.97556 89.286 7.18522C89.1547 7.35221 89.077 7.55157 89.0513 7.78478H90.6977Z" fill="white"/>
</svg>
