<svg width="16" height="17" viewBox="0 0 16 17" fill="none" xmlns="http://www.w3.org/2000/svg">
<g clip-path="url(#clip0_2945_13065)">
<path d="M8.00008 6.49996C8.36675 6.49996 8.66675 6.19996 8.66675 5.83329V4.49996H10.0001C10.3667 4.49996 10.6667 4.19996 10.6667 3.83329C10.6667 3.46663 10.3667 3.16663 10.0001 3.16663H8.66675V1.83329C8.66675 1.46663 8.36675 1.16663 8.00008 1.16663C7.63341 1.16663 7.33342 1.46663 7.33342 1.83329V3.16663H6.00008C5.63341 3.16663 5.33342 3.46663 5.33342 3.83329C5.33342 4.19996 5.63341 4.49996 6.00008 4.49996H7.33342V5.83329C7.33342 6.19996 7.63341 6.49996 8.00008 6.49996ZM4.66675 12.5C3.93341 12.5 3.34008 13.1 3.34008 13.8333C3.34008 14.5666 3.93341 15.1666 4.66675 15.1666C5.40008 15.1666 6.00008 14.5666 6.00008 13.8333C6.00008 13.1 5.40008 12.5 4.66675 12.5ZM11.3334 12.5C10.6001 12.5 10.0067 13.1 10.0067 13.8333C10.0067 14.5666 10.6001 15.1666 11.3334 15.1666C12.0667 15.1666 12.6667 14.5666 12.6667 13.8333C12.6667 13.1 12.0667 12.5 11.3334 12.5ZM5.40008 9.16663H10.3667C10.8667 9.16663 11.3067 8.89329 11.5334 8.47996L13.7867 4.39329C13.9667 4.07329 13.8467 3.66663 13.5267 3.48663C13.2067 3.31329 12.8001 3.42663 12.6267 3.74663L10.3667 7.83329H5.68675L3.02675 2.21329C2.92008 1.97996 2.68008 1.83329 2.42675 1.83329H1.33341C0.966748 1.83329 0.666748 2.13329 0.666748 2.49996C0.666748 2.86663 0.966748 3.16663 1.33341 3.16663H2.00008L4.40008 8.22663L3.50008 9.85329C3.01341 10.7466 3.65341 11.8333 4.66675 11.8333H12.0001C12.3667 11.8333 12.6667 11.5333 12.6667 11.1666C12.6667 10.8 12.3667 10.5 12.0001 10.5H4.66675L5.40008 9.16663Z" fill="white"/>
</g>
<defs>
<clipPath id="clip0_2945_13065">
<rect width="16" height="16" fill="white" transform="translate(0 0.5)"/>
</clipPath>
</defs>
</svg>
