<svg width="102" height="30" viewBox="0 0 102 30" fill="none" xmlns="http://www.w3.org/2000/svg">
<path d="M97.952 29.4258H3.76739C1.69627 29.4258 0 27.7696 0 25.7475V3.67798C0 1.65586 1.69627 -0.000278066 3.76739 -0.000278066H97.952C100.023 -0.000278066 101.719 1.65586 101.719 3.67798V25.7475C101.719 27.7696 100.023 29.4258 97.952 29.4258Z" fill="black"/>
<path d="M97.952 0.589161C99.6963 0.589161 101.116 1.97495 101.116 3.67798V25.7475C101.116 27.4506 99.6963 28.8363 97.952 28.8363H3.76739C2.02309 28.8363 0.603723 27.4506 0.603723 25.7475V3.67798C0.603723 1.97495 2.02309 0.589161 3.76739 0.589161H97.952ZM97.952 -0.000278066H3.76739C1.69627 -0.000278066 0 1.65586 0 3.67798V25.7475C0 27.7696 1.69627 29.4258 3.76739 29.4258H97.952C100.023 29.4258 101.719 27.7696 101.719 25.7475V3.67798C101.719 1.65586 100.023 -0.000278066 97.952 -0.000278066Z" fill="#A6A6A6"/>
<path d="M35.728 7.53549C35.728 8.14976 35.5397 8.64172 35.1686 9.00863C34.7419 9.44358 34.1862 9.66244 33.5053 9.66244C32.8545 9.66244 32.2988 9.4399 31.8429 9.00127C31.3861 8.5562 31.1582 8.00998 31.1582 7.35617C31.1582 6.70236 31.3861 6.15614 31.8429 5.71475C32.2988 5.27244 32.8545 5.0499 33.5053 5.0499C33.8293 5.0499 34.1382 5.11519 34.433 5.23658C34.7269 5.35888 34.9661 5.5244 35.1394 5.72854L34.7457 6.1166C34.4434 5.76808 34.0318 5.59613 33.5053 5.59613C33.0306 5.59613 32.619 5.75797 32.2696 6.08441C31.9239 6.41178 31.7506 6.8357 31.7506 7.35617C31.7506 7.87664 31.9239 8.30424 32.2696 8.63161C32.619 8.95437 33.0306 9.1199 33.5053 9.1199C34.0092 9.1199 34.433 8.95437 34.7674 8.62793C34.9878 8.41183 35.113 8.11389 35.146 7.73319H33.5053V7.20168H35.6941C35.7205 7.31663 35.728 7.4279 35.728 7.53549Z" fill="white" stroke="white" stroke-width="0.16" stroke-miterlimit="10"/>
<path d="M39.2006 5.69269H37.1446V7.09043H38.9981V7.62194H37.1446V9.01968H39.2006V9.5613H36.5625V5.15107H39.2006V5.69269Z" fill="white" stroke="white" stroke-width="0.16" stroke-miterlimit="10"/>
<path d="M41.6513 9.5613H41.0692V5.69269H39.8081V5.15107H42.9134V5.69269H41.6513V9.5613Z" fill="white" stroke="white" stroke-width="0.16" stroke-miterlimit="10"/>
<path d="M45.1606 9.5613V5.15107H45.7418V9.5613H45.1606Z" fill="white" stroke="white" stroke-width="0.16" stroke-miterlimit="10"/>
<path d="M48.3178 9.5613H47.7404V5.69269H46.4746V5.15107H49.5836V5.69269H48.3178V9.5613Z" fill="white" stroke="white" stroke-width="0.16" stroke-miterlimit="10"/>
<path d="M55.4626 8.99392C55.0171 9.4399 54.4652 9.66244 53.8069 9.66244C53.1447 9.66244 52.5928 9.4399 52.1473 8.99392C51.7028 8.54885 51.4814 8.00263 51.4814 7.35617C51.4814 6.70972 51.7028 6.1635 52.1473 5.71843C52.5928 5.27244 53.1447 5.0499 53.8069 5.0499C54.4614 5.0499 55.0134 5.27244 55.4589 5.72211C55.9072 6.17085 56.1285 6.7134 56.1285 7.35617C56.1285 8.00263 55.9072 8.54885 55.4626 8.99392ZM52.5778 8.62425C52.9131 8.95437 53.3209 9.1199 53.8069 9.1199C54.2891 9.1199 54.7007 8.95437 55.0322 8.62425C55.3666 8.29413 55.5361 7.87021 55.5361 7.35617C55.5361 6.84214 55.3666 6.41822 55.0322 6.08809C54.7007 5.75797 54.2891 5.59245 53.8069 5.59245C53.3209 5.59245 52.9131 5.75797 52.5778 6.08809C52.2434 6.41822 52.0739 6.84214 52.0739 7.35617C52.0739 7.87021 52.2434 8.29413 52.5778 8.62425Z" fill="white" stroke="white" stroke-width="0.16" stroke-miterlimit="10"/>
<path d="M56.9448 9.5613V5.15107H57.6512L59.8476 8.58104H59.873L59.8476 7.73321V5.15107H60.4287V9.5613H59.8222L57.5222 5.96213H57.4967L57.5222 6.81364V9.5613H56.9448Z" fill="white" stroke="white" stroke-width="0.16" stroke-miterlimit="10"/>
<path d="M51.3383 16.002C49.5686 16.002 48.1229 17.317 48.1229 19.1313C48.1229 20.9309 49.5686 22.2596 51.3383 22.2596C53.1118 22.2596 54.5575 20.9309 54.5575 19.1313C54.5575 17.317 53.1118 16.002 51.3383 16.002ZM51.3383 21.0274C50.3673 21.0274 49.5319 20.2449 49.5319 19.1313C49.5319 18.003 50.3673 17.2342 51.3383 17.2342C52.3094 17.2342 53.1485 18.003 53.1485 19.1313C53.1485 20.2449 52.3094 21.0274 51.3383 21.0274ZM44.3225 16.002C42.549 16.002 41.107 17.317 41.107 19.1313C41.107 20.9309 42.549 22.2596 44.3225 22.2596C46.0951 22.2596 47.538 20.9309 47.538 19.1313C47.538 17.317 46.0951 16.002 44.3225 16.002ZM44.3225 21.0274C43.3505 21.0274 42.5123 20.2449 42.5123 19.1313C42.5123 18.003 43.3505 17.2342 44.3225 17.2342C45.2935 17.2342 46.129 18.003 46.129 19.1313C46.129 20.2449 45.2935 21.0274 44.3225 21.0274ZM35.974 16.9611V18.2908H39.2262C39.131 19.0338 38.8767 19.58 38.4868 19.9607C38.0121 20.4205 37.2728 20.9309 35.974 20.9309C33.9725 20.9309 32.4053 19.3538 32.4053 17.3997C32.4053 15.4457 33.9725 13.8686 35.974 13.8686C37.0562 13.8686 37.8435 14.2815 38.4247 14.8167L39.3844 13.8796C38.5716 13.1219 37.4903 12.5398 35.974 12.5398C33.2294 12.5398 30.9229 14.7201 30.9229 17.3997C30.9229 20.0793 33.2294 22.2596 35.974 22.2596C37.4574 22.2596 38.5716 21.7851 39.4475 20.895C40.3451 20.0187 40.6248 18.7864 40.6248 17.7915C40.6248 17.4825 40.5984 17.1984 40.5513 16.9611H35.974ZM70.1121 17.9919C69.8475 17.2921 69.0309 16.002 67.3676 16.002C65.7194 16.002 64.3471 17.2701 64.3471 19.1313C64.3471 20.884 65.7052 22.2596 67.5258 22.2596C68.9979 22.2596 69.8475 21.3833 70.1969 20.8729L69.1044 20.1621C68.7399 20.6826 68.2435 21.0274 67.5258 21.0274C66.8128 21.0274 66.3014 20.7083 65.9737 20.0793L70.26 18.3478L70.1121 17.9919ZM65.742 19.0338C65.7052 17.8273 66.7017 17.2094 67.4156 17.2094C67.9751 17.2094 68.4498 17.4825 68.608 17.8733L65.742 19.0338ZM62.2581 22.0693H63.6671V12.8736H62.2581V22.0693ZM59.9506 16.699H59.9035C59.587 16.333 58.9833 16.002 58.2185 16.002C56.6136 16.002 55.1462 17.3777 55.1462 19.1414C55.1462 20.895 56.6136 22.2596 58.2185 22.2596C58.9833 22.2596 59.587 21.9258 59.9035 21.5488H59.9506V21.9976C59.9506 23.1939 59.296 23.8367 58.2402 23.8367C57.3793 23.8367 56.8453 23.2298 56.6249 22.7194L55.3996 23.2187C55.7527 24.0482 56.688 25.0689 58.2402 25.0689C59.8922 25.0689 61.2861 24.1199 61.2861 21.8109V16.1923H59.9506V16.699ZM58.3391 21.0274C57.368 21.0274 56.5552 20.2338 56.5552 19.1414C56.5552 18.0388 57.368 17.2342 58.3391 17.2342C59.296 17.2342 60.0504 18.0388 60.0504 19.1414C60.0504 20.2338 59.296 21.0274 58.3391 21.0274ZM76.7088 12.8736H73.3389V22.0693H74.7441V18.5851H76.7088C78.2695 18.5851 79.8 17.4825 79.8 15.7289C79.8 13.9762 78.2657 12.8736 76.7088 12.8736ZM76.7456 17.3059H74.7441V14.1528H76.7456C77.7948 14.1528 78.3938 15.0034 78.3938 15.7289C78.3938 16.4406 77.7948 17.3059 76.7456 17.3059ZM85.4322 15.9845C84.4169 15.9845 83.3611 16.4222 82.9269 17.3924L84.1739 17.9027C84.4423 17.3924 84.9359 17.2269 85.4576 17.2269C86.1866 17.2269 86.926 17.6545 86.9373 18.4094V18.506C86.683 18.3625 86.1386 18.1501 85.4689 18.1501C84.1259 18.1501 82.7574 18.872 82.7574 20.2191C82.7574 21.4513 83.8574 22.2449 85.0941 22.2449C86.0397 22.2449 86.5615 21.8284 86.8892 21.3437H86.9373V22.0546H88.2945V18.5271C88.2945 16.8967 87.0475 15.9845 85.4322 15.9845ZM85.2627 21.0237C84.8031 21.0237 84.1626 20.8012 84.1626 20.2449C84.1626 19.5331 84.9613 19.26 85.6526 19.26C86.2714 19.26 86.5615 19.3934 86.9373 19.569C86.8271 20.4205 86.0764 21.0237 85.2627 21.0237ZM93.2392 16.1859L91.6239 20.1722H91.5759L89.906 16.1859H88.3905L90.8996 21.7566L89.468 24.8565H90.9364L94.8026 16.1859H93.2392ZM80.5723 22.0693H81.9813V12.8736H80.5723V22.0693Z" fill="white"/>
<path d="M7.86261 5.54548C7.64127 5.7717 7.51318 6.12389 7.51318 6.57999V22.8489C7.51318 23.305 7.64127 23.6572 7.86261 23.8834L7.91724 23.9331L17.2547 14.8202V14.605L7.91724 5.49215L7.86261 5.54548Z" fill="url(#paint0_linear_498_19459)"/>
<path d="M20.3639 17.8594L17.2549 14.8202V14.6051L20.3677 11.5659L20.4374 11.6054L24.1238 13.6533C25.1758 14.2345 25.1758 15.1908 24.1238 15.7757L20.4374 17.8198L20.3639 17.8594Z" fill="url(#paint1_linear_498_19459)"/>
<path d="M20.4374 17.82L17.2549 14.7128L7.86279 23.8836C8.21222 24.2422 8.78203 24.2854 9.43003 23.9268L20.4374 17.82Z" fill="url(#paint2_linear_498_19459)"/>
<path d="M20.4374 11.6055L9.43003 5.4987C8.78203 5.14375 8.21222 5.18696 7.86279 5.54559L17.2549 14.7127L20.4374 11.6055Z" fill="url(#paint3_linear_498_19459)"/>
<defs>
<linearGradient id="paint0_linear_498_19459" x1="16.4256" y1="23.0184" x2="4.08319" y2="10.3768" gradientUnits="userSpaceOnUse">
<stop stop-color="#00A0FF"/>
<stop offset="0.0066" stop-color="#00A1FF"/>
<stop offset="0.2601" stop-color="#00BEFF"/>
<stop offset="0.5122" stop-color="#00D2FF"/>
<stop offset="0.7604" stop-color="#00DFFF"/>
<stop offset="1" stop-color="#00E3FF"/>
</linearGradient>
<linearGradient id="paint1_linear_498_19459" x1="25.4937" y1="14.7116" x2="7.26189" y2="14.7116" gradientUnits="userSpaceOnUse">
<stop stop-color="#FFE000"/>
<stop offset="0.4087" stop-color="#FFBD00"/>
<stop offset="0.7754" stop-color="#FFA500"/>
<stop offset="1" stop-color="#FF9C00"/>
</linearGradient>
<linearGradient id="paint2_linear_498_19459" x1="18.7068" y1="13.0236" x2="1.96946" y2="-4.11931" gradientUnits="userSpaceOnUse">
<stop stop-color="#FF3A44"/>
<stop offset="1" stop-color="#C31162"/>
</linearGradient>
<linearGradient id="paint3_linear_498_19459" x1="5.49861" y1="29.2961" x2="12.9726" y2="21.6411" gradientUnits="userSpaceOnUse">
<stop stop-color="#32A071"/>
<stop offset="0.0685" stop-color="#2DA771"/>
<stop offset="0.4762" stop-color="#15CF74"/>
<stop offset="0.8009" stop-color="#06E775"/>
<stop offset="1" stop-color="#00F076"/>
</linearGradient>
</defs>
</svg>
