<svg width="88" height="13" viewBox="0 0 88 13" fill="none" xmlns="http://www.w3.org/2000/svg">
<path d="M6.98391 0.0180664L9.31688 3.99568L13.8472 4.96988L10.7587 8.40239L11.2257 12.9821L6.98391 11.1259L2.74216 12.9821L3.20909 8.40239L0.120605 4.96988L4.65095 3.99568L6.98391 0.0180664Z" fill="#FFCB45"/>
<path d="M25.2861 0.0180664L27.619 3.99568L32.1494 4.96988L29.0609 8.40239L29.5278 12.9821L25.2861 11.1259L21.0443 12.9821L21.5112 8.40239L18.4228 4.96988L22.9531 3.99568L25.2861 0.0180664Z" fill="#FFCB45"/>
<path d="M43.5882 0.0180664L45.9212 3.99568L50.4515 4.96988L47.363 8.40239L47.83 12.9821L43.5882 11.1259L39.3465 12.9821L39.8134 8.40239L36.7249 4.96988L41.2553 3.99568L43.5882 0.0180664Z" fill="#FFCB45"/>
<path d="M61.8904 0.0180664L64.2233 3.99568L68.7537 4.96988L65.6652 8.40239L66.1321 12.9821L61.8904 11.1259L57.6486 12.9821L58.1156 8.40239L55.0271 4.96988L59.5574 3.99568L61.8904 0.0180664Z" fill="#FFCB45"/>
<path d="M80.1925 0.0180664L82.5255 3.99568L87.0558 4.96988L83.9674 8.40239L84.4343 12.9821L80.1925 11.1259L75.9508 12.9821L76.4177 8.40239L73.3292 4.96988L77.8596 3.99568L80.1925 0.0180664Z" fill="#F2F2F2"/>
<path d="M75.9508 12.9821L80.1925 11.1259V0.0180664L77.8596 3.99568L73.3292 4.96988L76.4177 8.40239L75.9508 12.9821Z" fill="#FFCB45"/>
</svg>
