<svg width="78" height="38" viewBox="0 0 78 38" fill="none" xmlns="http://www.w3.org/2000/svg">
<rect width="78" height="38" rx="2" fill="#F6F8FA"/>
<g clip-path="url(#clip0_2930_14565)">
<path d="M8 22H23V27H8V22Z" fill="#1FBA4A"/>
<path d="M8 12H23V17H8V12Z" fill="#0099B5"/>
<path d="M8 16.8H23V22.2H8V16.8Z" fill="#CE1126"/>
<path d="M8 17.1H23V21.9H8V17.1Z" fill="white"/>
<path d="M11.15 16.2C11.8955 16.2 12.5 15.3941 12.5 14.4C12.5 13.4059 11.8955 12.6 11.15 12.6C10.4044 12.6 9.79996 13.4059 9.79996 14.4C9.79996 15.3941 10.4044 16.2 11.15 16.2Z" fill="white"/>
<path d="M11.6 16.2C12.3456 16.2 12.95 15.3941 12.95 14.4C12.95 13.4059 12.3456 12.6 11.6 12.6C10.8544 12.6 10.25 13.4059 10.25 14.4C10.25 15.3941 10.8544 16.2 11.6 16.2Z" fill="#0099B5"/>
<path d="M14.1195 15.4806L14.034 15.8226L14.1645 15.8826" fill="white"/>
<path d="M14.1195 15.4806L14.034 15.8226L14.1645 15.8826" fill="white"/>
<path d="M14.1195 15.4806L14.034 15.8226L14.1645 15.8826" fill="white"/>
<path d="M14.1195 15.4806L14.034 15.8226L14.1645 15.8826" fill="white"/>
<path d="M14.1195 15.4806L14.034 15.8226L14.1645 15.8826" fill="white"/>
<path d="M14.1195 15.4806L14.034 15.8226L14.1645 15.8826" fill="white"/>
<path d="M14.1195 15.4806L14.034 15.8226L14.1645 15.8826" fill="white"/>
<path d="M14.1195 15.4806L14.034 15.8226L14.1645 15.8826" fill="white"/>
<path d="M14.1195 15.4806L14.034 15.8226L14.1645 15.8826" fill="white"/>
<path d="M14.1195 15.4806L14.034 15.8226L14.1645 15.8826" fill="white"/>
<path d="M14.1195 15.4806L14.034 15.8226L14.1645 15.8826" fill="white"/>
<path d="M14.1195 15.4806L14.034 15.8226L14.1645 15.8826" fill="white"/>
<path d="M14.1195 15.4806L14.034 15.8226L14.1645 15.8826" fill="white"/>
<path d="M14.1195 15.4806L14.034 15.8226L14.1645 15.8826" fill="white"/>
<path d="M14.1195 15.4806L14.034 15.8226L14.1645 15.8826" fill="white"/>
<path d="M14.1195 15.4806L14.034 15.8226L14.1645 15.8826" fill="white"/>
<path d="M14.1195 15.4806L14.034 15.8226L14.1645 15.8826" fill="white"/>
<path d="M14.1195 15.4806L14.034 15.8226L14.1645 15.8826" fill="white"/>
<path d="M14.1195 15.4806L14.034 15.8226L14.1645 15.8826" fill="white"/>
<path d="M14.1195 15.4806L14.034 15.8226L14.1645 15.8826" fill="white"/>
<path d="M14.1195 15.4806L14.034 15.8226L14.1645 15.8826" fill="white"/>
<path d="M14.1195 15.4806L14.034 15.8226L14.1645 15.8826" fill="white"/>
<path d="M14.1195 15.4806L14.034 15.8226L14.1645 15.8826" fill="white"/>
<path d="M14.1195 15.4806L14.034 15.8226L14.1645 15.8826" fill="white"/>
<path d="M14.1195 15.4806L14.034 15.8226L14.1645 15.8826" fill="white"/>
<path d="M14.1195 15.4806L14.034 15.8226L14.1645 15.8826" fill="white"/>
<path d="M14.1195 15.4806L14.034 15.8226L14.1645 15.8826" fill="white"/>
<path d="M14.1195 15.4806L14.034 15.8226L14.1645 15.8826" fill="white"/>
<path d="M14.1195 15.4806L14.034 15.8226L14.1645 15.8826" fill="white"/>
<path d="M14.1195 15.4806L14.034 15.8226L14.1645 15.8826" fill="white"/>
<path d="M14.1195 15.4806L14.034 15.8226L14.1645 15.8826" fill="white"/>
<path d="M14.1195 15.4806L14.034 15.8226L14.1645 15.8826" fill="white"/>
<path d="M14.1195 15.4806L14.034 15.8226L14.1645 15.8826" fill="white"/>
<path d="M14.1195 15.4806L14.034 15.8226L14.1645 15.8826" fill="white"/>
<path d="M14.1195 15.4806L14.034 15.8226L14.1645 15.8826" fill="white"/>
<path d="M14.1195 15.4806L14.034 15.8226L14.1645 15.8826" fill="white"/>
<path d="M14.1195 15.4806L14.034 15.8226L14.1645 15.8826" fill="white"/>
<path d="M14.1195 15.4806L14.034 15.8226L14.1645 15.8826" fill="white"/>
<path d="M14.1195 15.4806L14.034 15.8226L14.1645 15.8826" fill="white"/>
<path d="M14.1195 15.4806L14.034 15.8226L14.1645 15.8826" fill="white"/>
<path d="M14.1195 15.4806L14.034 15.8226L14.1645 15.8826" fill="white"/>
<path d="M14.1195 15.4806L14.034 15.8226L14.1645 15.8826" fill="white"/>
<path d="M14.1195 15.4806L14.034 15.8226L14.1645 15.8826" fill="white"/>
<path d="M14.1195 15.4806L14.034 15.8226L14.1645 15.8826" fill="white"/>
<path d="M14.1195 15.4806L14.034 15.8226L14.1645 15.8826" fill="white"/>
<path d="M14.1195 15.4806L14.034 15.8226L14.1645 15.8826" fill="white"/>
<path d="M14.1195 15.4806L14.034 15.8226L14.1645 15.8826" fill="white"/>
<path d="M14.1195 15.4806L14.034 15.8226L14.1645 15.8826" fill="white"/>
<path d="M14.1195 15.4806L14.034 15.8226L14.1645 15.8826" fill="white"/>
<path d="M14.1195 15.4806L14.034 15.8226L14.1645 15.8826" fill="white"/>
<path d="M14.1195 15.4806L14.034 15.8226L14.1645 15.8826" fill="white"/>
<path d="M14.1195 15.4806L14.034 15.8226L14.1645 15.8826" fill="white"/>
<path d="M14.1195 15.4806L14.034 15.8226L14.1645 15.8826" fill="white"/>
<path d="M14.1195 15.4806L14.034 15.8226L14.1645 15.8826" fill="white"/>
<path d="M14.1195 15.4806L14.034 15.8226L14.1645 15.8826" fill="white"/>
<path d="M14.1195 15.4806L14.034 15.8226L14.1645 15.8826" fill="white"/>
<path d="M14.1195 15.4806L14.034 15.8226L14.1645 15.8826" fill="white"/>
<path d="M14.1195 15.4806L14.034 15.8226L14.1645 15.8826" fill="white"/>
<path d="M14.1195 15.4806L14.034 15.8226L14.1645 15.8826" fill="white"/>
<path d="M14.1195 15.4806L14.034 15.8226L14.1645 15.8826" fill="white"/>
</g>
<path d="M34.7456 23.845C35.1906 23.845 35.5881 23.77 35.9381 23.62C36.2881 23.47 36.5831 23.26 36.8231 22.99C37.0681 22.72 37.2531 22.3975 37.3781 22.0225C37.5081 21.6475 37.5731 21.235 37.5731 20.785V14.2525H39.0206V20.785C39.0206 21.405 38.9206 21.98 38.7206 22.51C38.5256 23.04 38.2431 23.5 37.8731 23.89C37.5081 24.275 37.0606 24.5775 36.5306 24.7975C36.0006 25.0175 35.4056 25.1275 34.7456 25.1275C34.0856 25.1275 33.4906 25.0175 32.9606 24.7975C32.4306 24.5775 31.9806 24.275 31.6106 23.89C31.2406 23.5 30.9556 23.04 30.7556 22.51C30.5606 21.98 30.4631 21.405 30.4631 20.785V14.2525H31.9106V20.7775C31.9106 21.2275 31.9731 21.64 32.0981 22.015C32.2281 22.39 32.4131 22.7125 32.6531 22.9825C32.8981 23.2525 33.1956 23.465 33.5456 23.62C33.9006 23.77 34.3006 23.845 34.7456 23.845ZM46.2922 17.9725C46.2922 18.0675 46.2747 18.16 46.2397 18.25C46.2097 18.34 46.1672 18.4175 46.1122 18.4825L41.9947 23.9575H46.1497V25H40.4272V24.445C40.4272 24.38 40.4422 24.305 40.4722 24.22C40.5022 24.13 40.5472 24.045 40.6072 23.965L44.7472 18.4525H40.6597V17.4025H46.2922V17.9725Z" fill="#1FBA4A"/>
<path d="M58.12 17.29L62 21.17L65.88 17.29C66.27 16.9 66.9 16.9 67.29 17.29C67.68 17.68 67.68 18.31 67.29 18.7L62.7 23.29C62.31 23.68 61.68 23.68 61.29 23.29L56.7 18.7C56.31 18.31 56.31 17.68 56.7 17.29C57.09 16.91 57.73 16.9 58.12 17.29Z" fill="#0A0A0A"/>
<defs>
<clipPath id="clip0_2930_14565">
<rect x="8" y="12" width="15" height="15" rx="6" fill="white"/>
</clipPath>
</defs>
</svg>
